<svg width="24" height="21" viewBox="0 0 24 21" fill="none" xmlns="http://www.w3.org/2000/svg">
<path d="M23.25 16.125C23.25 17.015 22.9861 17.885 22.4916 18.6251C21.9971 19.3651 21.2943 19.9419 20.4721 20.2825C19.6498 20.6231 18.745 20.7122 17.8721 20.5385C16.9992 20.3649 16.1974 19.9363 15.568 19.307C14.9387 18.6776 14.5101 17.8758 14.3365 17.0029C14.1628 16.13 14.2519 15.2252 14.5925 14.4029C14.9331 13.5807 15.5099 12.8779 16.2499 12.3834C16.99 11.8889 17.86 11.625 18.75 11.625C19.9435 11.625 21.0881 12.0991 21.932 12.943C22.7759 13.7869 23.25 14.9315 23.25 16.125ZM22.125 0.375H3C2.40326 0.375 1.83097 0.612053 1.40901 1.03401C0.987053 1.45597 0.75 2.02826 0.75 2.625V18.375C0.75 18.9717 0.987053 19.544 1.40901 19.966C1.83097 20.3879 2.40326 20.625 3 20.625H13.7325C12.5753 19.3425 11.9547 17.6646 11.999 15.9377C12.0433 14.2109 12.749 12.567 13.9705 11.3455C15.192 10.124 16.8359 9.41829 18.5627 9.374C20.2896 9.32971 21.9675 9.95025 23.25 11.1075V6C23.25 5.70163 23.1315 5.41548 22.9205 5.2045C22.7095 4.99353 22.4234 4.875 22.125 4.875H4.125C3.82663 4.875 3.54048 4.75647 3.3295 4.54549C3.11853 4.33452 3 4.04837 3 3.75C3 3.45163 3.11853 3.16548 3.3295 2.9545C3.54048 2.74353 3.82663 2.625 4.125 2.625H23.25V1.5C23.25 1.20163 23.1315 0.915483 22.9205 0.704505C22.7095 0.493526 22.4234 0.375 22.125 0.375Z" fill="#4C49ED"/>
</svg>
